<svg xmlns="http://www.w3.org/2000/svg" width="134" height="15" viewBox="0 0 134 15">
  <g fill="none" fill-rule="evenodd">
      <g fill="#E30611">
          <path d="M4.77 0C6.317 0 7.882.392 9 1.06v2.747C7.9 2.983 6.43 2.57 4.975 2.59c-1.416.02-2.124.432-2.124 1.276 0 2.374 7.137 1.491 7.137 6.377 0 3.081-2.348 4.043-5.087 4.043-1.808 0-3.485-.452-4.827-1.236v-2.807a8.05 8.05 0 0 0 4.622 1.452c1.51 0 2.44-.333 2.44-1.314C7.137 7.81 0 8.77 0 3.905 0 1.255 2.199 0 4.77 0M25.775.34v13.946h-2.809V5.699l-3.464 5.598h-1.63L14.408 5.68v8.607h-2.81V.34h2.604l4.494 7.252L23.172.34zM31.543 9.206h4.271l-1.852-5a6.418 6.418 0 0 1-.284-1.096c-.094.537-.189.816-.302 1.095l-1.833 5zm-4.801 5.08L32.148.34h3.061l5.387 13.946h-2.93l-.963-2.61h-6.049l-.983 2.61h-2.93zM44.36 6.914h2.704c1.175 0 2.2-.557 2.2-1.972 0-1.434-1.025-1.972-2.2-1.972H44.36v3.944zm-2.798 7.372V.34h5.37c2.537 0 5.185 1.016 5.185 4.542 0 2.391-1.268 3.606-2.853 4.144l3.897 5.26h-3.226l-3.524-4.881H44.36v4.88h-2.798zM63.471.34v2.69h-3.908v11.256h-2.816V3.03h-3.908V.34z"/>
      </g>
      <g fill="#00B4AE">
          <path d="M123.462 7.453c0 2.368-.326 4.659-.935 6.833h1.703c.57-2.182.875-4.472.875-6.833 0-2.36-.304-4.65-.875-6.832h-1.703c.609 2.174.935 4.465.935 6.832M128.46 7.453c0 2.35-.269 4.636-.777 6.833h.852c.495-2.2.758-4.486.758-6.833 0-2.346-.263-4.632-.758-6.832h-.852c.508 2.197.778 4.484.778 6.832M113.525 7.453c0 2.465-.59 4.788-1.63 6.833h3.53a18.43 18.43 0 0 0 1.303-6.833 18.43 18.43 0 0 0-1.304-6.832h-3.529a15.042 15.042 0 0 1 1.63 6.832"/>
          <path d="M110.761.621h-4.987a9.68 9.68 0 0 1 2.788 6.832 9.68 9.68 0 0 1-2.788 6.833h4.987a13.916 13.916 0 0 0 1.779-6.833c0-2.49-.65-4.822-1.779-6.832M118.53 7.453c0 2.4-.409 4.7-1.158 6.833h2.52a23.167 23.167 0 0 0 1.025-6.833c0-2.382-.36-4.677-1.024-6.832h-2.52a20.597 20.597 0 0 1 1.157 6.832M79.998.621v13.665H77.19V5.872l-3.465 5.486h-1.63l-3.464-5.505v8.433h-2.809V.62h2.603l4.495 7.106L77.395.621zM92.13.621v2.577h-6.423v2.908h5.86v2.558h-5.86v3.045h6.535v2.577h-9.344V.62z"/>
          <path d="M99.14 3.198h-2.122v8.511h2.122c2.635 0 4.056-1.445 4.056-4.255 0-2.812-1.421-4.256-4.056-4.256zm0-2.577c4.72 0 6.956 2.87 6.956 6.833 0 3.962-2.237 6.832-6.956 6.832h-4.965V.62h4.965z"/>
      </g>
  </g>
</svg>
